<?xml version="1.0" standalone="no"?>
<!DOCTYPE svg PUBLIC "-//W3C//DTD SVG 20010904//EN"
 "http://www.w3.org/TR/2001/REC-SVG-20010904/DTD/svg10.dtd">
<svg version="1.0" xmlns="http://www.w3.org/2000/svg"
 width="700.000000pt" height="700.000000pt" viewBox="0 0 700.000000 700.000000"
 preserveAspectRatio="xMidYMid meet">
<metadata>
Created by potrace 1.11, written by Peter Selinger 2001-2013
</metadata>
<g transform="translate(0.000000,700.000000) scale(0.100000,-0.100000)"
fill="#000000" stroke="none">
<path d="M1410 6991 c-103 -32 -164 -95 -213 -220 -33 -83 -74 -216 -83 -270
-2 -14 -7 -37 -9 -51 -3 -14 -8 -36 -10 -50 -19 -96 -25 -341 -11 -468 4 -41
16 -115 27 -165 l19 -92 -26 -35 c-166 -225 -290 -506 -340 -765 -4 -22 -9
-47 -10 -55 -27 -130 -26 -569 2 -760 62 -420 153 -684 332 -960 90 -140 163
-223 332 -380 21 -20 113 -89 180 -136 78 -53 296 -164 420 -212 84 -32 217
-73 387 -118 8 -2 4 -25 -12 -77 -44 -138 -63 -256 -64 -408 l-1 -85 -82 -14
c-276 -45 -507 1 -678 135 -59 46 -174 171 -282 306 -146 183 -262 306 -343
364 -133 95 -293 157 -384 149 -61 -5 -150 -48 -190 -92 -53 -59 -75 -116 -76
-197 0 -126 73 -230 193 -275 120 -45 158 -80 359 -330 193 -240 326 -369 487
-469 144 -90 325 -156 491 -178 63 -8 323 -10 439 -2 l69 4 1 -275 c2 -298 6
-330 56 -398 132 -182 412 -147 506 63 16 37 18 91 19 705 1 366 5 687 9 714
18 126 83 257 181 363 131 143 103 363 -59 458 -42 24 -96 39 -193 50 -26 3
-59 8 -71 11 -13 3 -43 7 -65 10 -53 7 -276 59 -342 80 -447 141 -727 366
-889 715 -70 152 -121 326 -142 489 -3 25 -7 56 -10 70 -11 65 -19 210 -18
360 1 226 36 387 127 580 35 74 121 208 168 260 140 158 165 238 117 380 -26
74 -56 203 -63 270 -7 59 -8 232 -1 265 2 11 7 43 10 70 13 90 8 86 84 65 160
-45 396 -159 612 -295 65 -42 135 -83 157 -91 51 -22 134 -20 224 4 65 18 110
28 209 47 22 4 142 23 250 40 135 20 583 28 745 13 179 -17 385 -51 540 -90
198 -50 245 -42 409 65 105 69 280 166 381 212 78 35 90 40 149 64 15 6 59 20
97 30 76 22 72 24 84 -44 34 -196 20 -409 -41 -590 -52 -152 -34 -256 61 -361
119 -131 229 -319 279 -476 46 -144 58 -231 61 -413 2 -174 -1 -224 -31 -460
-3 -21 -12 -69 -21 -105 -8 -36 -16 -72 -18 -81 -11 -54 -81 -243 -116 -313
-173 -343 -476 -570 -921 -690 -51 -14 -109 -28 -128 -31 -19 -3 -51 -10 -70
-15 -19 -5 -53 -11 -75 -14 -22 -4 -51 -8 -65 -11 -33 -6 -82 -12 -155 -21
-166 -18 -278 -145 -271 -305 4 -80 28 -133 94 -206 83 -91 149 -222 168 -334
4 -24 8 -348 8 -719 l1 -676 33 -66 c21 -43 47 -78 74 -99 157 -125 387 -61
457 125 18 48 19 89 19 716 1 747 -2 803 -57 968 -15 46 -25 85 -21 87 3 2 51
15 107 29 718 182 1210 612 1426 1246 49 145 82 272 101 395 25 154 30 203 41
355 6 85 6 339 0 400 -32 325 -135 614 -319 890 -47 70 -74 121 -70 130 7 19
33 157 41 225 9 70 9 327 0 405 -19 155 -81 383 -137 503 -28 59 -102 127
-163 149 -68 25 -303 23 -423 -3 -123 -26 -258 -72 -399 -134 -119 -53 -305
-150 -357 -186 -14 -11 -29 -19 -32 -19 -4 0 -24 -12 -46 -26 -34 -23 -43 -25
-72 -16 -35 11 -164 37 -233 47 -22 3 -47 7 -55 10 -8 2 -40 6 -71 10 -31 3
-65 7 -75 9 -80 15 -316 28 -499 28 -236 0 -481 -18 -631 -46 -10 -2 -53 -9
-94 -16 -41 -7 -112 -20 -158 -30 l-83 -18 -45 26 c-25 15 -60 36 -77 46 -154
92 -344 184 -492 239 -200 74 -308 95 -487 95 -79 1 -154 -3 -168 -7z"/>
</g>
</svg>
